<svg width="241" height="40" viewBox="0 0 241 40" fill="none" xmlns="http://www.w3.org/2000/svg">
<path d="M39.8526 6L4.98739 6C2.23293 6 0.0101929 8.16621 0.0227664 10.8384L0.137217 35.1616C0.149791 37.8338 2.39291 40 5.14738 40L40.0126 40C42.7671 40 44.9898 37.8338 44.9772 35.1616L44.8628 10.8384C44.8502 8.16621 42.6071 6 39.8526 6Z" fill="#120404"/>
<path fill-rule="evenodd" clip-rule="evenodd" d="M13.166 18.7738C18.5325 18.2248 15.4722 18.111 22.581 18.2177L22.6988 15.6883C24.0876 16.069 25.7665 17.0165 27.111 17.7031L31.0608 19.7273L22.6811 24.2121L22.5118 22.2756C19.6518 22.6124 16.107 24.5311 14.9921 25.6185C14.2543 26.3395 13.163 27.5336 12.5519 28.5985C12.3957 28.8713 11.2662 32.0113 11.1425 32.0102C11.085 33.7 10.8037 34.3474 11.6476 35.6803C13.4531 37.2527 16.5576 36.8152 17.7328 34.9961C19.0966 32.8853 18.0495 32.0315 20.4912 29.6148C23.8298 26.3122 29.2406 28.5155 32.9739 24.4932C36.5158 20.6771 34.7853 16.3879 31.1566 14.2368C28.8798 12.8873 27.0448 12.7877 23.6517 12.764C21.5192 12.7486 16.2749 12.4688 14.6239 12.8067C12.4208 13.8337 13.6888 16.4911 13.1645 18.7726L13.166 18.7738Z" fill="white"/>
<path fill-rule="evenodd" clip-rule="evenodd" d="M13.192 18.7201C11.9682 19.5763 11.6354 19.3522 11.4395 20.9637C11.2952 22.1579 11.3438 23.5749 11.3217 24.7916C11.2775 27.181 11.223 29.5693 11.1685 31.9564C11.2937 31.9576 12.4218 28.8175 12.5779 28.5448C13.1891 27.4799 14.2804 26.2846 15.0182 25.5648C16.1316 24.4762 19.6778 22.5575 22.5378 22.2219L22.7072 24.1584L31.0869 19.6747L27.1371 17.6505C25.791 16.9651 24.1122 16.0164 22.7249 15.6357L22.607 18.1651C15.4983 18.0572 18.5586 18.1723 13.192 18.7213V18.7201Z" fill="black"/>
<path d="M55.6875 35V8.81818H74.5568V14.5455H62.7955V19.0455H73.5852V24.7727H62.7955V29.2727H74.5057V35H55.6875ZM100.735 8.81818V35H94.8036L85.3434 21.2443H85.19V35H78.082V8.81818H84.1161L93.4229 22.5227H93.6275V8.81818H100.735ZM104.098 35V8.81818H111.206V19.4034H111.564L119.439 8.81818H127.723L118.876 20.4773L127.927 35H119.439L113.558 25.1818L111.206 28.25V35H104.098ZM129.832 35V8.81818H141.133C143.076 8.81818 144.777 9.2017 146.234 9.96875C147.691 10.7358 148.825 11.8139 149.635 13.2031C150.444 14.5923 150.849 16.2159 150.849 18.0739C150.849 19.9489 150.431 21.5724 149.596 22.9446C148.77 24.3168 147.606 25.3736 146.106 26.1151C144.615 26.8565 142.872 27.2273 140.877 27.2273H134.127V21.7045H139.446C140.281 21.7045 140.993 21.5597 141.581 21.2699C142.177 20.9716 142.633 20.5497 142.949 20.0043C143.272 19.4588 143.434 18.8153 143.434 18.0739C143.434 17.3239 143.272 16.6847 142.949 16.1562C142.633 15.6193 142.177 15.2102 141.581 14.929C140.993 14.6392 140.281 14.4943 139.446 14.4943H136.94V35H129.832ZM156.989 35H149.318L157.96 8.81818H167.676L176.318 35H168.648L162.92 16.0284H162.716L156.989 35ZM155.557 24.6705H169.977V29.9886H155.557V24.6705ZM175.094 8.81818H183.02L188.134 19.4545H188.338L193.452 8.81818H201.378L191.765 26.767V35H184.708V26.767L175.094 8.81818Z" fill="black"/>
</svg>
